<?xml version="1.0" standalone="no"?><!DOCTYPE svg PUBLIC "-//W3C//DTD SVG 1.1//EN" "http://www.w3.org/Graphics/SVG/1.1/DTD/svg11.dtd"><svg t="1592138822079" class="icon" viewBox="0 0 1024 1024" version="1.1" xmlns="http://www.w3.org/2000/svg" p-id="796" xmlns:xlink="http://www.w3.org/1999/xlink" width="200" height="200"><defs><style type="text/css"></style></defs><path d="M512.192 85.333333v853.333334h-341.333333V85.333333h341.333333m85.333333-85.333333h-512v1024h512z" p-id="797"></path><path d="M597.525333 370.56l256 76.8v491.2h-256V370.56m-85.333333-114.666667v768h426.666667v-640z" p-id="798"></path><path d="M1024 938.666667H0v85.333333h1024v-85.333333z" p-id="799"></path><path d="M426.666667 170.496h-170.666667v85.333333h170.666667v-85.333333z" p-id="800"></path><path d="M426.666667 341.333333h-170.666667v85.333334h170.666667v-85.333334z" p-id="801"></path><path d="M426.666667 512.106667h-170.666667v85.333333h170.666667v-85.333333z" p-id="802"></path><path d="M768 511.829333h-85.333333v255.893334h85.333333V511.829333z" p-id="803"></path><path d="M426.666667 682.496h-170.666667v85.333333h170.666667v-85.333333z" p-id="804"></path></svg>