<?xml version="1.0" standalone="no"?><!DOCTYPE svg PUBLIC "-//W3C//DTD SVG 1.1//EN" "http://www.w3.org/Graphics/SVG/1.1/DTD/svg11.dtd"><svg t="1592138958805" class="icon" viewBox="0 0 1024 1024" version="1.1" xmlns="http://www.w3.org/2000/svg" p-id="6594" xmlns:xlink="http://www.w3.org/1999/xlink" width="200" height="200"><defs><style type="text/css"></style></defs><path d="M312.211233 527.986089h399.581627c13.240559 0 23.975041-10.734482 23.975041-23.97504 0-13.240559-10.734482-23.975041-23.975041-23.975041H312.211233c-13.240559 0-23.975041 10.734482-23.975041 23.975041 0 13.240559 10.734482 23.975041 23.975041 23.97504z m0-175.816284h399.581627c13.240559 0 23.975041-10.734482 23.975041-23.975041 0-13.240559-10.734482-23.975041-23.975041-23.975041H312.211233c-13.240559 0-23.975041 10.734482-23.975041 23.975041 0 13.241582 10.734482 23.975041 23.975041 23.975041z m175.815261 303.682487H312.211233c-13.240559 0-23.975041 10.734482-23.975041 23.975041s10.734482 23.975041 23.975041 23.975041h175.816284c13.240559 0 23.975041-10.734482 23.975041-23.975041s-10.735505-23.975041-23.976064-23.975041z m175.816285-47.950082c-48.550763 0-87.908142 39.35738-87.908143 87.908143 0 48.550763 39.35738 87.908142 87.908143 87.908142 48.550763 0 87.908142-39.35738 87.908142-87.908142 0-48.550763-39.35738-87.908142-87.908142-87.908143z m0 127.866203c-22.067598 0-39.95806-17.890462-39.958061-39.95806s17.890462-39.95806 39.958061-39.958061 39.95806 17.890462 39.95806 39.958061-17.889439 39.95806-39.95806 39.95806z m119.873158-607.367021H240.28304c-44.13622 0-79.916121 35.778878-79.916121 79.916121v607.364974c0 44.13622 35.779901 79.916121 79.916121 79.916121h543.432897c44.13622 0 79.916121-35.779901 79.91612-79.916121V208.317513c0-44.138266-35.779901-79.916121-79.91612-79.916121z m31.966039 687.282119c0 17.653055-14.312984 31.967062-31.967063 31.967062H240.28304c-17.653055 0-31.966039-14.312984-31.966039-31.967062V208.319559c0-17.653055 14.312984-31.967062 31.966039-31.967062h543.432897c17.653055 0 31.967062 14.312984 31.967062 31.967062v607.363952z" p-id="6595"></path></svg>