<?xml version="1.0" standalone="no"?><!DOCTYPE svg PUBLIC "-//W3C//DTD SVG 1.1//EN" "http://www.w3.org/Graphics/SVG/1.1/DTD/svg11.dtd"><svg t="1592139049685" class="icon" viewBox="0 0 1024 1024" version="1.1" xmlns="http://www.w3.org/2000/svg" p-id="8546" xmlns:xlink="http://www.w3.org/1999/xlink" width="200" height="200"><defs><style type="text/css"></style></defs><path d="M691.2 460.8c-19.2-12.8-32-25.6-44.8-38.4L646.4 448 505.6 448 505.6 422.4C492.8 435.2 480 448 460.8 460.8L441.6 428.8c51.2-32 89.6-76.8 115.2-140.8l32 0c25.6 51.2 64 96 115.2 140.8L691.2 460.8zM537.6 480l32-12.8c12.8 32 19.2 70.4 32 115.2L569.6 595.2C563.2 556.8 550.4 518.4 537.6 480zM537.6 601.6 505.6 608C492.8 569.6 486.4 524.8 467.2 492.8l32-12.8C518.4 518.4 531.2 556.8 537.6 601.6zM704 665.6 448 665.6 448 627.2l147.2 0c19.2-44.8 32-96 44.8-166.4l38.4 12.8c-12.8 57.6-25.6 108.8-44.8 153.6l64 0L697.6 665.6zM377.6 569.6C384 569.6 396.8 576 396.8 576c12.8 0 19.2-6.4 19.2-6.4 6.4-6.4 6.4-6.4 6.4-12.8 0-25.6-12.8-57.6-44.8-96 19.2-44.8 32-76.8 44.8-115.2L371.2 345.6l0 339.2L332.8 684.8 332.8 307.2l134.4 0 0 32C448 377.6 435.2 416 422.4 454.4 448 492.8 460.8 524.8 460.8 556.8 460.8 576 460.8 588.8 448 595.2 441.6 608 416 614.4 384 614.4L377.6 569.6zM896 153.6c0 0-128 19.2-198.4 0C576 121.6 512 64 512 64S448 121.6 332.8 153.6C256 172.8 128 153.6 128 153.6s-25.6 243.2 6.4 448C160 806.4 512 960 512 960s352-153.6 377.6-358.4C915.2 403.2 896 153.6 896 153.6zM576 326.4C563.2 358.4 544 371.2 524.8 409.6l108.8 0C608 371.2 588.8 358.4 576 326.4z" p-id="8547"></path></svg>